<svg width="24" height="24" viewBox="0 0 24 24" fill="none" xmlns="http://www.w3.org/2000/svg">
<path d="M9.56924 18.6722C9.56924 19.073 9.91364 19.3979 10.3385 19.3979C10.7633 19.3979 11.1077 19.073 11.1077 18.6722H9.56924ZM10.3385 16.5135L9.56981 16.4857C9.56943 16.495 9.56924 16.5042 9.56924 16.5135H10.3385ZM12.8 14.3557L12.7729 15.0809C12.791 15.0815 12.809 15.0815 12.8271 15.0809L12.8 14.3557ZM15.2615 16.5135H16.0307C16.0307 16.5042 16.0305 16.495 16.0302 16.4857L15.2615 16.5135ZM14.4923 18.6722C14.4923 19.073 14.8367 19.3979 15.2615 19.3979C15.6863 19.3979 16.0307 19.073 16.0307 18.6722H14.4923ZM10.3385 17.9465C9.91364 17.9465 9.56924 18.2714 9.56924 18.6722C9.56924 19.073 9.91364 19.3979 10.3385 19.3979V17.9465ZM15.2615 19.3979C15.6863 19.3979 16.0307 19.073 16.0307 18.6722C16.0307 18.2714 15.6863 17.9465 15.2615 17.9465V19.3979ZM10.3385 19.3979C10.7633 19.3979 11.1077 19.073 11.1077 18.6722C11.1077 18.2714 10.7633 17.9465 10.3385 17.9465V19.3979ZM9.72309 18.6722V17.9465C9.71406 17.9465 9.70504 17.9466 9.69601 17.9469L9.72309 18.6722ZM6.03081 15.4346H5.26159C5.26159 15.4437 5.26177 15.4529 5.26214 15.4621L6.03081 15.4346ZM6.80004 8.94584C6.80004 8.54505 6.45564 8.22014 6.03081 8.22014C5.60598 8.22014 5.26159 8.54505 5.26159 8.94584H6.80004ZM3.13729 9.92162C2.78578 10.1467 2.69424 10.598 2.93282 10.9296C3.17142 11.2612 3.64978 11.3476 4.00129 11.1225L3.13729 9.92162ZM6.46281 9.5463C6.81432 9.32121 6.90586 8.86991 6.66728 8.53829C6.42868 8.20668 5.95032 8.12031 5.59881 8.3454L6.46281 9.5463ZM5.59881 8.3454C5.24729 8.57047 5.15576 9.02174 5.39432 9.35337C5.6329 9.685 6.11129 9.77136 6.46281 9.5463L5.59881 8.3454ZM11.3805 5.52054L10.9632 4.91092C10.9583 4.91392 10.9533 4.91697 10.9485 4.92008L11.3805 5.52054ZM14.2195 5.52054L14.6515 4.92008C14.6466 4.91697 14.6417 4.91392 14.6368 4.91092L14.2195 5.52054ZM19.1372 9.54632C19.4888 9.77138 19.9671 9.685 20.2057 9.35337C20.4442 9.02174 20.3526 8.57045 20.0012 8.34538L19.1372 9.54632ZM15.2615 17.9465C14.8367 17.9465 14.4923 18.2714 14.4923 18.6722C14.4923 19.073 14.8367 19.3979 15.2615 19.3979V17.9465ZM15.8769 18.6722L15.904 17.9469C15.8949 17.9466 15.8859 17.9465 15.8769 17.9465V18.6722ZM19.5692 15.4346L20.3379 15.4621C20.3382 15.4529 20.3384 15.4437 20.3384 15.4346H19.5692ZM20.3384 8.94584C20.3384 8.54505 19.994 8.22014 19.5692 8.22014C19.1443 8.22014 18.7999 8.54505 18.7999 8.94584H20.3384ZM21.5989 11.1216C21.9505 11.3467 22.4288 11.2602 22.6673 10.9285C22.9058 10.5968 22.8141 10.1455 22.4625 9.92054L21.5989 11.1216ZM20.0012 8.34538C19.6496 8.12039 19.1711 8.20678 18.9326 8.53847C18.6941 8.87015 18.7856 9.32132 19.1372 9.54632L20.0012 8.34538ZM11.1077 18.6722V16.5135H9.56924V18.6722H11.1077ZM11.1072 16.5411C11.141 15.7046 11.886 15.0514 12.7729 15.0809L12.8271 13.6304C11.0928 13.5728 9.63604 14.8498 9.56981 16.4857L11.1072 16.5411ZM12.8271 15.0809C13.7139 15.0514 14.459 15.7046 14.4928 16.5411L16.0302 16.4857C15.964 14.8498 14.5072 13.5728 12.7729 13.6304L12.8271 15.0809ZM14.4923 16.5135V18.6722H16.0307V16.5135H14.4923ZM10.3385 19.3979H15.2615V17.9465H10.3385V19.3979ZM10.3385 17.9465H9.72309V19.3979H10.3385V17.9465ZM9.69601 17.9469C8.15352 17.9982 6.85796 16.8621 6.79948 15.4071L5.26214 15.4621C5.35274 17.7166 7.36015 19.4768 9.75017 19.3974L9.69601 17.9469ZM6.80004 15.4346V8.94584H5.26159V15.4346H6.80004ZM4.00129 11.1225L6.46281 9.5463L5.59881 8.3454L3.13729 9.92162L4.00129 11.1225ZM6.46281 9.5463L11.8125 6.12101L10.9485 4.92008L5.59881 8.3454L6.46281 9.5463ZM11.7978 6.13016C12.4079 5.75847 13.1921 5.75847 13.8021 6.13016L14.6368 4.91092C13.5188 4.22968 12.0812 4.22968 10.9632 4.91092L11.7978 6.13016ZM13.7875 6.12101L19.1372 9.54632L20.0012 8.34538L14.6515 4.92008L13.7875 6.12101ZM15.2615 19.3979H15.8769V17.9465H15.2615V19.3979ZM15.8498 19.3974C18.2398 19.4768 20.2472 17.7166 20.3379 15.4621L18.8005 15.4071C18.742 16.8621 17.4464 17.9982 15.904 17.9469L15.8498 19.3974ZM20.3384 15.4346V8.94584H18.7999V15.4346H20.3384ZM22.4625 9.92054L20.0012 8.34538L19.1372 9.54632L21.5989 11.1216L22.4625 9.92054Z" fill="black"/>
</svg>
