<svg width="24" height="24" viewBox="0 0 24 24" fill="none" xmlns="http://www.w3.org/2000/svg">
<path d="M12 2V6M12 6L8.501 8.799C7.283 9.773 7 10.363 7 11.923V22M12 6L15.499 8.799C16.717 9.774 17 10.362 17 11.923V22M14 4H10M17 22H7M17 22H19C19.943 22 20.414 22 20.707 21.707C21 21.414 21 20.943 21 20V16.472C21 15.269 21 14.668 20.701 14.184C20.403 13.701 19.865 13.432 18.789 12.894L17 12M7 22H5C4.057 22 3.586 22 3.293 21.707C3 21.414 3 20.943 3 20V16.473C3 15.27 3 14.669 3.299 14.184C3.597 13.701 4.135 13.432 5.211 12.894L7 12" stroke="black" stroke-width="1.5" stroke-linecap="round" stroke-linejoin="round"/>
<path d="M10 22V18C10 17.4696 10.2107 16.9609 10.5858 16.5858C10.9609 16.2107 11.4696 16 12 16C12.5304 16 13.0391 16.2107 13.4142 16.5858C13.7893 16.9609 14 17.4696 14 18V22M12.008 11H11.999" stroke="black" stroke-width="1.5" stroke-linecap="round" stroke-linejoin="round"/>
</svg>
