<svg width="24" height="24" viewBox="0 0 24 24" fill="none" xmlns="http://www.w3.org/2000/svg">
<path d="M12 10C14.2091 10 16 8.20914 16 6C16 3.79086 14.2091 2 12 2C9.79086 2 8 3.79086 8 6C8 8.20914 9.79086 10 12 10Z" stroke="#1C274C" stroke-width="2"/>
<path d="M15 13.3271C14.0736 13.1162 13.0609 13 12 13C7.58172 13 4 15.0147 4 17.5C4 19.9853 4 22 12 22C17.6874 22 19.3315 20.9817 19.8068 19.5" stroke="#1C274C" stroke-width="2"/>
<path d="M18 20C20.2091 20 22 18.2091 22 16C22 13.7909 20.2091 12 18 12C15.7909 12 14 13.7909 14 16C14 18.2091 15.7909 20 18 20Z" stroke="#1C274C" stroke-width="2"/>
<path d="M17 16H19" stroke="#1C274C" stroke-width="2" stroke-linecap="round" stroke-linejoin="round"/>
</svg>
